<svg xmlns="http://www.w3.org/2000/svg" viewBox="0 0 96 96"><g data-name="Layer 13"><path fill="#27277c" d="M29.14 61.05a1.52 1.52 0 0 1-1.25-.67 24 24 0 0 1-4-13.34 24.35 24.35 0 0 1 .9-6.58 1.5 1.5 0 0 1 2.89.82 21.25 21.25 0 0 0 2.72 17.44 1.5 1.5 0 0 1-1.25 2.33zM28.92 37.21a1.46 1.46 0 0 1-1.06-.44 1.5 1.5 0 0 1-.44-1.06 1.43 1.43 0 0 1 0-.29 1.31 1.31 0 0 1 .09-.28 1.26 1.26 0 0 1 .13-.26 2.11 2.11 0 0 1 .19-.23 1.55 1.55 0 0 1 2.12 0 1.52 1.52 0 0 1 .44 1.06 1.52 1.52 0 0 1-.93 1.39A1.56 1.56 0 0 1 28.92 37.21zM69.38 56a1.4 1.4 0 0 1-.49-.08A1.51 1.51 0 0 1 68 54 21.13 21.13 0 0 0 33.6 31.59a1.5 1.5 0 1 1-2.05-2.19A24.13 24.13 0 0 1 70.8 55 1.52 1.52 0 0 1 69.38 56z"/><path fill="#27277c" d="M62.48 42.43a1.5 1.5 0 0 1-1.38-.92A14.2 14.2 0 0 0 48 32.83a1.5 1.5 0 0 1 0-3A17.2 17.2 0 0 1 63.86 40.34a1.51 1.51 0 0 1-1.38 2.09zM48 17.54A1.5 1.5 0 0 1 46.5 16V5.42a1.5 1.5 0 0 1 3 0V16A1.5 1.5 0 0 1 48 17.54zM69.92 26.63a1.51 1.51 0 0 1-1.06-2.57l7.51-7.51a1.5 1.5 0 1 1 2.12 2.12L71 26.19A1.51 1.51 0 0 1 69.92 26.63zM89.63 48.54H79a1.5 1.5 0 0 1 0-3H89.63a1.5 1.5 0 0 1 0 3zM17 48.54H6.38a1.5 1.5 0 0 1 0-3H17a1.5 1.5 0 0 1 0 3zM26.08 26.63A1.51 1.51 0 0 1 25 26.19l-7.51-7.52a1.5 1.5 0 1 1 2.12-2.12l7.51 7.51a1.51 1.51 0 0 1-1.06 2.57zM59.84 19.9a1.46 1.46 0 0 1-.57-.12 1.49 1.49 0 0 1-.81-2l1.86-4.5a1.5 1.5 0 1 1 2.77 1.14L61.23 19A1.5 1.5 0 0 1 59.84 19.9zM76.63 36.66a1.5 1.5 0 0 1-.57-2.89l4.5-1.86a1.48 1.48 0 0 1 2 .81 1.5 1.5 0 0 1-.81 2l-4.5 1.87A1.7 1.7 0 0 1 76.63 36.66zM19.35 36.7a1.41 1.41 0 0 1-.57-.11l-4.51-1.86A1.5 1.5 0 0 1 15.42 32l4.5 1.86a1.49 1.49 0 0 1-.57 2.88zM36.12 19.91A1.5 1.5 0 0 1 34.73 19l-1.87-4.5a1.5 1.5 0 0 1 2.77-1.15l1.87 4.5a1.5 1.5 0 0 1-.81 2A1.44 1.44 0 0 1 36.12 19.91zM82.38 61H13.63a1.5 1.5 0 0 1 0-3H82.38a1.5 1.5 0 0 1 0 3zM40.08 81.18H23.42A4.42 4.42 0 0 1 19 76.77a4.49 4.49 0 0 1 .23-1.42H16.67a4.43 4.43 0 0 1-4.42-4.42 4.42 4.42 0 0 1 4.42-4.41H33.33a4.41 4.41 0 0 1 4.42 4.41 4.54 4.54 0 0 1-.23 1.42h2.56a4.42 4.42 0 1 1 0 8.83zM24.92 73.85a1.5 1.5 0 0 1-1.5 1.5 1.36 1.36 0 0 0-1 .42 1.4 1.4 0 0 0-.42 1 1.42 1.42 0 0 0 1.42 1.41H40.08a1.41 1.41 0 0 0 1-.41 1.44 1.44 0 0 0 .42-1 1.42 1.42 0 0 0-1.42-1.42H33.33a1.5 1.5 0 0 1 0-3 1.41 1.41 0 0 0 1-.41 1.44 1.44 0 0 0 .43-1 1.42 1.42 0 0 0-1.42-1.41H16.67a1.37 1.37 0 0 0-1 .4 1.4 1.4 0 0 0-.43 1 1.43 1.43 0 0 0 1.42 1.42h6.75A1.5 1.5 0 0 1 24.92 73.85zM82.75 87.35H69.23a3.87 3.87 0 0 1-3.87-3.87 4.28 4.28 0 0 1 .09-.87h-1.7a3.87 3.87 0 1 1 0-7.73H77.27a3.86 3.86 0 0 1 3.87 3.86 4.14 4.14 0 0 1-.09.87h1.7a3.87 3.87 0 0 1 2.74 6.61A3.84 3.84 0 0 1 82.75 87.35zm-12-6.24a1.5 1.5 0 0 1-1.5 1.5.86.86 0 0 0-.62.26.89.89 0 0 0-.25.61.87.87 0 0 0 .87.87H82.75a.89.89 0 0 0 .88-.87.88.88 0 0 0-.88-.87H77.27a1.5 1.5 0 0 1 0-3 .86.86 0 0 0 .61-.25.86.86 0 0 0-.61-1.48H63.75a.86.86 0 0 0-.61.24.9.9 0 0 0-.26.62.87.87 0 0 0 .87.87h5.48A1.5 1.5 0 0 1 70.73 81.11zM70 69.52a1.39 1.39 0 0 1-.57-.12 1.34 1.34 0 0 1-.49-.32 1.5 1.5 0 0 1-.41-1.36c0-.09 0-.19.08-.28a2.15 2.15 0 0 1 .14-.26 1.37 1.37 0 0 1 .19-.22 1.06 1.06 0 0 1 .23-.19l.26-.14a.9.9 0 0 1 .28-.08 1.5 1.5 0 0 1 1.35.41 1.37 1.37 0 0 1 .19.22 1.26 1.26 0 0 1 .13.26 1.49 1.49 0 0 1-.32 1.64 1.34 1.34 0 0 1-.49.32A1.39 1.39 0 0 1 70 69.52zM64.5 69.52H49.38a1.5 1.5 0 0 1 0-3H64.5a1.5 1.5 0 0 1 0 3zM32.88 92.08h-22a1.5 1.5 0 1 1 0-3h22a1.5 1.5 0 1 1 0 3zM49.17 92.08H43.83a1.5 1.5 0 0 1 0-3h5.34a1.5 1.5 0 0 1 0 3z"/></g></svg>