<svg xmlns="http://www.w3.org/2000/svg" data-name="Layer 1" viewBox="0 0 128 128"><path d="M72.99991 18h6a2 2 0 0 0 0-4h-6a2 2 0 0 0 0 4zM72.99991 26h2a2 2 0 0 0 0-4h-2a2 2 0 0 0 0 4zM78.99991 30h-6a2 2 0 0 0 0 4h6a2 2 0 0 0 0-4zM72.99991 42h2a2 2 0 0 0 0-4h-2a2 2 0 0 0 0 4zM78.99991 46h-6a2 2 0 0 0 0 4h6a2 2 0 0 0 0-4zM72.99991 58h2a2 2 0 0 0 0-4h-2a2 2 0 0 0 0 4zM78.99991 62h-6a2 2 0 0 0 0 4h6a2 2 0 0 0 0-4zM72.99991 74h2a2 2 0 0 0 0-4h-2a2 2 0 0 0 0 4zM78.99991 78h-6a2 2 0 0 0 0 4h6a2 2 0 0 0 0-4zM74.99991 86h-2a2 2 0 0 0 0 4h2a2 2 0 0 0 0-4zM85.828 24L87.414 22.41406a1.99979 1.99979 0 0 0-2.82812-2.82812l-3 3a1.99927 1.99927 0 0 0 0 2.82813l3 3A1.99979 1.99979 0 0 0 87.414 25.58594zM56.99991 103a8 8 0 1 0 8 8A8.00917 8.00917 0 0 0 56.99991 103zm0 12a4 4 0 1 1 4-4A4.00427 4.00427 0 0 1 56.99991 115z"/><path d="M66.99991,97.26855V10a10,10,0,0,0-20,0V97.26855a16.89124,16.89124,0,0,0-6.99951,13.833,17.1933,17.1933,0,0,0,16.1958,16.87988q.40869.019.814.01855a16.98921,16.98921,0,0,0,9.98975-30.73145Zm-1.02344,23.13477a12.91413,12.91413,0,0,1-9.5957,3.582A13.14475,13.14475,0,0,1,44.0004,111.07813a12.93216,12.93216,0,0,1,6.06885-11.06055,2.001,2.001,0,0,0,.93066-1.69043V10a6,6,0,0,1,12,0V98.32715a2.001,2.001,0,0,0,.93066,1.69043,12.9837,12.9837,0,0,1,2.0459,20.38574Z"/><path d="M56.99991 50a2 2 0 1 0-2-2A1.99978 1.99978 0 0 0 56.99991 50zM56.99991 43a2 2 0 1 0-2-2A1.99978 1.99978 0 0 0 56.99991 43zM56.99991 57a2 2 0 1 0-2-2A1.99978 1.99978 0 0 0 56.99991 57zM56.99991 85a2 2 0 1 0-2-2A1.99978 1.99978 0 0 0 56.99991 85zM56.99991 92a2 2 0 1 0-2-2A1.99978 1.99978 0 0 0 56.99991 92zM56.99991 99a2 2 0 1 0-2-2A1.99978 1.99978 0 0 0 56.99991 99zM56.99991 78a2 2 0 1 0-2-2A1.99978 1.99978 0 0 0 56.99991 78zM56.99991 71a2 2 0 1 0-2-2A1.99978 1.99978 0 0 0 56.99991 71zM56.99991 64a2 2 0 1 0-2-2A1.99978 1.99978 0 0 0 56.99991 64z"/></svg>