<?xml version="1.0" encoding="iso-8859-1"?>
<!-- Generator: Adobe Illustrator 19.0.0, SVG Export Plug-In . SVG Version: 6.00 Build 0)  -->
<svg version="1.1" id="Capa_1" xmlns="http://www.w3.org/2000/svg" xmlns:xlink="http://www.w3.org/1999/xlink" x="0px" y="0px"
	 viewBox="0 0 510.428 510.428" style="enable-background:new 0 0 510.428 510.428;" xml:space="preserve">
<g>
	<g>
		<path d="M497.05,234.818L198.383,128.152c-12.8-6.4-27.733,4.267-27.733,19.2v8.533l-85.333,42.667v-74.667
			c34.133-12.8,51.2-49.067,38.4-81.067s-46.933-51.2-81.067-38.4c-34.133,12.8-51.2,49.067-38.4,81.067
			c6.4,19.2,21.333,32,38.4,38.4v386.133h42.667v-243.2l85.333,42.667v8.533c0,12.8,12.8,23.467,25.6,21.333l298.667-64
			C514.117,271.085,516.25,241.218,497.05,234.818z M63.983,85.485c-12.8,0-21.333-8.533-21.333-21.333
			c0-12.8,8.533-21.333,21.333-21.333s21.333,8.533,21.333,21.333C85.316,76.952,76.783,85.485,63.983,85.485z M170.65,262.552
			l-59.733-29.867l59.733-29.867V262.552z M213.316,292.418v-115.2l200.533,70.4L213.316,292.418z"/>
	</g>
</g>
<g>
</g>
<g>
</g>
<g>
</g>
<g>
</g>
<g>
</g>
<g>
</g>
<g>
</g>
<g>
</g>
<g>
</g>
<g>
</g>
<g>
</g>
<g>
</g>
<g>
</g>
<g>
</g>
<g>
</g>
</svg>
